#N canvas 827 239 527 327 12;
#X obj 334 558 metro 1 120 permin, f 19;
#X obj 292 506 tgl 19 0 empty empty empty 17 7 0 10 #dfdfdf #000000 #000000 0 1;
#X msg 464 471 0.5;
#X msg 500 471 1;
#X msg 429 471 4;
#X text 531 466 beat length;
#X msg 334 506 tempo \$1 permin;
#X floatatom 334 470 5 0 0 0 - - - 0;
#X text 93 557 A metronome at intervals of one beat at 120 beats per minute:, f 31;
#X floatatom 464 532 5 0 0 0 - - - 0;
#X text 239 504 on/off;
#X text 238 466 change tempo;
#X obj 464 508 expr 1/$f1;
#X obj 541 758 bng 19 250 50 0 empty empty empty 17 7 0 10 #dfdfdf #000000 #000000;
#X obj 539 794 counter 1 4;
#X obj 539 1095 makenote 100 1000, f 18;
#X obj 539 1153 noteout, f 34;
#X obj 540 825 select 1 2 3 4, f 28;
#X obj 571 967 knob 50 0 127 0 0 empty seq_pitch1 #E4E4E4 #B7B7B7 #4D4D4D 1 0 0 0 1 270 0 0 0;
#X obj 628 967 knob 50 0 127 0 0 empty seq_pitch2 #E4E4E4 #B7B7B7 #4D4D4D 1 0 0 0 1 270 0 0 0;
#X obj 685 967 knob 50 0 127 0 0 empty seq_pitch3 #E4E4E4 #B7B7B7 #4D4D4D 1 0 0 0 1 270 0 0 0;
#X obj 742 966 knob 50 0 127 0 0 empty seq_pitch4 #E4E4E4 #B7B7B7 #4D4D4D 1 0 0 0 1 270 0 0 0;
#X obj 541 1036 int;
#X obj 583 1036 int;
#X obj 625 1036 int;
#X obj 667 1036 int;
#X obj 940 1029 knob 50 0 1000 0 0 empty gui_duration #E4E4E4 #B7B7B7 #4D4D4D 1 0 0 0 1 270 0 0 0;
#X obj 794 419 playhead-tick;
#X text 902 477 https://youtu.be/DFjUDD_0lMc?si=PpTVEjz8C1TL4cBu&t=2121;
#X text 884 506 Pure Data: External synchronization using Ableton Link and PlugData;
#X obj 794 509 burst 1 0.25;
#X obj 794 464 unpack f;
#X obj 794 554 bng 25 250 50 0 empty empty empty 17 7 0 10 #333333 #eeeeee #e4e4e4;
#X text 789 387 SYNC TO HOST;
#X obj 538 656 switch;
#X obj 542 572 vradio 15 1 0 2 empty empty empty 0 -8 0 10 #dcdcdc #000000 #000000 0;
#X text 558 568 METRO;
#X text 557 584 HOST SYNC;
#X obj 538 619 + 1;
#X obj 772 916 loadmess 60;
#X obj 940 991 loadmess 300;
#X obj 882 749 s pd;
#X msg 881 712 pluginmode;
#X text 884 680 OPEN IN PRESENTATION BY DEFAULT;
#N canvas 0 22 450 300 gui 1;
#X obj 11 28 knob 50 0 127 0 0 empty empty #333333 #696969 #EEEEEE 1 0 0 0 1 270 0 0 0;
#X obj 79 27 knob 50 0 127 0 0 empty empty #333333 #696969 #EEEEEE 1 0 0 0 1 270 0 0 0;
#X obj 147 26 knob 50 0 127 0 0 empty empty #333333 #696969 #EEEEEE 1 0 0 0 1 270 0 0 0;
#X obj 215 25 knob 50 0 127 0 0 empty empty #333333 #696969 #EEEEEE 1 0 0 0 1 270 0 0 0;
#X obj 283 24 knob 50 0 127 0 0 empty empty #333333 #696969 #EEEEEE 1 0 0 0 1 270 0 0 0;
#X obj 225 187 knob 50 0 127 0 0 empty empty #333333 #696969 #EEEEEE 1 0 0 0 1 270 0 0 0;
#X connect 0 0 5 0;
#X connect 1 0 5 0;
#X connect 2 0 5 0;
#X connect 3 0 5 0;
#X connect 4 0 5 0;
#X coords 0 0 1 1 364 97 0;
#X restore 212 31 pd gui;
#X obj 884 659 loadbang;
#X obj 538 539 loadmess 1;
#X obj 29 59 knob 50 0 127 0 0 seq_pitch1 empty #E4E4E4 #B7B7B7 #4D4D4D 1 0 0 0 1 270 0 0 0;
#X obj 89 59 knob 50 0 127 0 0 seq_pitch2 empty #E4E4E4 #B7B7B7 #4D4D4D 1 0 0 0 1 270 0 0 0;
#X obj 149 59 knob 50 0 127 0 0 seq_pitch3 empty #E4E4E4 #B7B7B7 #4D4D4D 1 0 0 0 1 270 0 0 0;
#X obj 209 59 knob 50 0 127 0 0 seq_pitch4 empty #E4E4E4 #B7B7B7 #4D4D4D 1 0 0 0 1 270 0 0 0;
#X obj 172 168 knob 83 0 1000 0 0 gui_duration empty #E4E4E4 #B7B7B7 #4D4D4D 1 0 0 0 1 270 0 0 0;
#X obj 539 869 bng 25 250 50 0 bang_1 empty empty 17 7 0 10 #333333 #eeeeee #e4e4e4;
#X obj 584 869 bng 25 250 50 0 bang_2 empty empty 17 7 0 10 #333333 #eeeeee #e4e4e4;
#X obj 629 869 bng 25 250 50 0 bang_3 empty empty 17 7 0 10 #333333 #eeeeee #e4e4e4;
#X obj 674 869 bng 25 250 50 0 bang_4 empty empty 17 7 0 10 #333333 #eeeeee #e4e4e4;
#X obj 29 119 cnv 15 46 16 empty led_1 empty 20 12 0 14 #ffffff #000000 0;
#X obj 89 119 cnv 15 46 16 empty led_2 empty 20 12 0 14 #ffffff #000000 0;
#X obj 149 119 cnv 15 46 16 empty led_3 empty 20 12 0 14 #ff99e0 #000000 0;
#X obj 209 119 cnv 15 46 16 empty led_4 empty 20 12 0 14 #ffffff #000000 0;
#X obj 809 209 hradio 21 1 0 3 empty gui_divider empty 0 -11 0 12 #fcfcfc #000000 #000000 0;
#X msg 809 299 1;
#X msg 839 299 0.5;
#X msg 884 299 0.25;
#X obj 103 31 cnv 15 46 16 empty gui_divider_label 1/4 5 8 0 15 #ffffff #000000 0;
#X obj 809 254 sel 0 1 2, f 19;
#X obj 29 29 hradio 20 1 0 3 gui_divider empty empty 0 -11 0 12 #fcfcfc #000000 #000000 0;
#X text 802 175 CHANGE DIVISION 1/4 \, 1/8 \, 1/16;
#N canvas 733 172 450 300 gui_divider_label 0;
#X msg 241 245 label \$1;
#X floatatom 330 101 4 0 3 0 - - - 0;
#X obj 372 128 t b f;
#X floatatom 364 94 5 5 50 0 - - - 0;
#X msg 330 198 label_font \$1 \$2;
#X text 285 97 type;
#X text 394 93 size;
#X obj 330 38 vradio 15 1 0 3 empty empty empty 0 -8 0 10 #fcfcfc #000000 #000000 0;
#X text 351 37 DejaVu Sans Mono;
#X text 351 53 Helvetica;
#X text 351 68 Times;
#X floatatom 484 117 4 -100 250 0 - - - 0;
#X obj 526 144 t b f;
#X floatatom 526 117 5 -150 150 0 - - - 0;
#X msg 484 214 label_pos \$1 \$2;
#X text 466 116 x;
#X text 574 168 y;
#X text 664 108 label offset:;
#X obj 484 172 pack 17 20, f 11;
#X obj 330 157 pack 0 25, f 11;
#X obj 589 64 loadbang;
#X msg 589 109 5;
#X msg 619 109 8;
#X msg 424 94 15.5;
#X msg 31 200 symbol 1/4;
#X msg 136 200 symbol 1/8;
#X msg 226 200 symbol 1/16;
#X obj 330 293 send gui_divider_label;
#X obj 31 33 inlet;
#X obj 34 71 sel 0 1 2;
#X connect 0 0 27 0;
#X connect 1 0 19 0;
#X connect 2 0 19 0;
#X connect 2 1 19 1;
#X connect 3 0 2 0;
#X connect 4 0 27 0;
#X connect 7 0 1 0;
#X connect 11 0 18 0;
#X connect 12 0 18 0;
#X connect 12 1 18 1;
#X connect 13 0 12 0;
#X connect 14 0 27 0;
#X connect 18 0 14 0;
#X connect 19 0 4 0;
#X connect 20 0 21 0;
#X connect 20 0 22 0;
#X connect 20 0 23 0;
#X connect 21 0 18 0;
#X connect 22 0 12 0;
#X connect 23 0 2 0;
#X connect 24 0 0 0;
#X connect 25 0 0 0;
#X connect 26 0 0 0;
#X connect 28 0 29 0;
#X connect 29 0 24 0;
#X connect 29 1 25 0;
#X connect 29 2 26 0;
#X restore 988 255 pd gui_divider_label;
#N canvas 733 172 450 300 visualize_steps 0;
#X msg 124 161 color #ff99e0 #000000 #000000;
#X obj 124 221 send led_1;
#X msg 383 161 color #ffffff #000000 #000000, f 40;
#X obj 124 116 sel 1;
#X msg 123 309 color #ff99e0 #000000 #000000;
#X msg 382 309 color #ffffff #000000 #000000, f 40;
#X obj 123 264 sel 2;
#X msg 124 446 color #ff99e0 #000000 #000000;
#X msg 383 446 color #ffffff #000000 #000000, f 40;
#X obj 124 401 sel 3;
#X msg 124 581 color #ff99e0 #000000 #000000;
#X msg 383 581 color #ffffff #000000 #000000, f 40;
#X obj 124 536 sel 4;
#X obj 123 369 send led_2;
#X obj 124 506 send led_3;
#X obj 124 641 send led_4;
#X obj 124 56 cnv 15 46 16 empty led_1 empty 20 12 0 14 #ffffff #000000 0;
#X obj 184 56 cnv 15 46 16 empty led_2 empty 20 12 0 14 #ffffff #000000 0;
#X obj 244 56 cnv 15 46 16 empty led_3 empty 20 12 0 14 #ff99e0 #000000 0;
#X obj 304 56 cnv 15 46 16 empty led_4 empty 20 12 0 14 #ffffff #000000 0;
#X obj 58 55 inlet;
#X connect 0 0 1 0;
#X connect 2 0 1 0;
#X connect 3 0 0 0;
#X connect 3 1 2 0;
#X connect 4 0 13 0;
#X connect 5 0 13 0;
#X connect 6 0 4 0;
#X connect 6 1 5 0;
#X connect 7 0 14 0;
#X connect 8 0 14 0;
#X connect 9 0 7 0;
#X connect 9 1 8 0;
#X connect 10 0 15 0;
#X connect 11 0 15 0;
#X connect 12 0 10 0;
#X connect 12 1 11 0;
#X connect 20 0 12 0;
#X connect 20 0 9 0;
#X connect 20 0 6 0;
#X connect 20 0 3 0;
#X restore 873 826 pd visualize_steps;
#X obj 1503 319 presets;
#A saved -empty- \; -empty- \; -empty- \; -empty- \; -empty- \; -empty- \; -empty- \; -empty- \; -empty- \; -empty- \; -empty- \; -empty- \; -empty- \; -empty- \; -empty- \; -empty- \; -empty- \; -empty- \; -empty- \; -empty- \; -empty- \; -empty- \; -empty- \; -empty- \; -empty- \; -empty- \; -empty- \; -empty- \; -empty- \; -empty- \; -empty- \; -empty- \; -empty- \; -empty- \; -empty- \; -empty- \; -empty- \; -empty- \; -empty- \; -empty- \; -empty- \; -empty- \; -empty- \; -empty- \; -empty- \; -empty- \; -empty- \; -empty- \; -empty- \; -empty- \; -empty- \; -empty- \; -empty- \; -empty- \; -empty- \; -empty- \; -empty- \; -empty- \; -empty- \; -empty- \; -empty- \; -empty- \; -empty- \; -empty- \;;
#X obj 1503 240 hradio 21 1 0 8 empty empty empty 0 -11 0 12 #fcfcfc #000000 #000000 0;
#X msg 1689 240 save;
#X obj 1687 277 bang;
#X text 1504 208 PRESET MANAGEMENT;
#X text 1509 177 >>>> TODO <<<<;
#X text 947 962 DURATION;
#X obj 813 1025 knob 50 0 127 0 0 empty gui_velocity #E4E4E4 #B7B7B7 #4D4D4D 1 0 0 0 1 270 0 0 0;
#X obj 813 987 loadmess 100;
#X text 814 960 VELOCITY;
#X text 185 148 DURATION;
#X text 30 148 VELOCITY, f 11;
#X obj 30 168 knob 83 0 127 0 0 gui_velocity empty #E4E4E4 #B7B7B7 #4D4D4D 1 0 0 0 1 270 0 0 0;
#X connect 0 0 34 1;
#X connect 1 0 0 0;
#X connect 2 0 12 0;
#X connect 3 0 12 0;
#X connect 4 0 12 0;
#X connect 6 0 0 0;
#X connect 7 0 6 0;
#X connect 9 0 0 1;
#X connect 12 0 9 0;
#X connect 13 0 14 0;
#X connect 14 0 17 0;
#X connect 14 0 69 0;
#X connect 15 0 16 0;
#X connect 15 1 16 1;
#X connect 17 0 52 0;
#X connect 17 1 53 0;
#X connect 17 2 54 0;
#X connect 17 3 55 0;
#X connect 18 0 22 1;
#X connect 19 0 23 1;
#X connect 20 0 24 1;
#X connect 21 0 25 1;
#X connect 22 0 15 0;
#X connect 23 0 15 0;
#X connect 24 0 15 0;
#X connect 25 0 15 0;
#X connect 26 0 15 2;
#X connect 27 0 31 0;
#X connect 27 1 0 0;
#X connect 27 1 30 0;
#X connect 30 0 32 0;
#X connect 31 0 30 0;
#X connect 32 0 34 2;
#X connect 34 0 13 0;
#X connect 35 0 38 0;
#X connect 38 0 34 0;
#X connect 39 0 18 0;
#X connect 39 0 19 0;
#X connect 39 0 20 0;
#X connect 39 0 21 0;
#X connect 40 0 26 0;
#X connect 42 0 41 0;
#X connect 45 0 42 0;
#X connect 46 0 35 0;
#X connect 52 0 22 0;
#X connect 53 0 23 0;
#X connect 54 0 24 0;
#X connect 55 0 25 0;
#X connect 60 0 65 0;
#X connect 60 0 68 0;
#X connect 61 0 30 2;
#X connect 62 0 30 2;
#X connect 63 0 30 2;
#X connect 65 0 61 0;
#X connect 65 1 62 0;
#X connect 65 2 63 0;
#X connect 71 0 70 0;
#X connect 72 0 73 0;
#X connect 73 0 70 0;
#X connect 77 0 15 1;
#X connect 78 0 77 0;
#X coords 1011 314 1 1 284 297 1 0 0;
